HIERARCHY
ROOT Hips
{
	OFFSET 0.000000 8.830580 0.000000
	CHANNELS 6 Xposition Yposition Zposition Zrotation Yrotation Xrotation 
	JOINT Spine
	{
		OFFSET 0.000000 0.010000 0.000000
		CHANNELS 3 Zrotation Yrotation Xrotation
		JOINT Spine1
		{
			OFFSET 0.000000 2.459130 0.000000
			CHANNELS 3 Zrotation Yrotation Xrotation
			JOINT Neck
			{
				OFFSET 0.000000 2.484630 0.000000
				CHANNELS 3 Zrotation Yrotation Xrotation
				JOINT Head_virtual
				{
					OFFSET 0.000000 0.000000 0.000000
					CHANNELS 3 Zrotation Yrotation Xrotation
					JOINT Head
					{
						OFFSET 0.000000 0.927525 0.000000
						CHANNELS 3 Zrotation Yrotation Xrotation
						End Site
						{
							OFFSET 0.000000 0.000000 0.000000
						}
					}
				}
				JOINT LeftUpArm_virtual
				{
					OFFSET 0.000000 0.000000 0.000000
					CHANNELS 3 Zrotation Yrotation Xrotation
					JOINT LeftUpArm
					{
						OFFSET 1.248820 0.000000 0.000000
						CHANNELS 3 Zrotation Yrotation Xrotation
						JOINT LeftForeArm
						{
							OFFSET 2.597580 0.000000 0.000000
							CHANNELS 3 Zrotation Yrotation Xrotation
							JOINT LeftHand
							{
								OFFSET 2.455420 0.000000 0.000000
								CHANNELS 3 Zrotation Yrotation Xrotation
								End Site
								{
									OFFSET 0.000000 0.000000 0.000000
								}
							}
						}
					}
				}
				JOINT RightUpArm_virtual
				{
					OFFSET -0.000000 -0.000000 -0.000000
					CHANNELS 3 Zrotation Yrotation Xrotation
					JOINT RightUpArm
					{
						OFFSET -1.248820 -0.000000 -0.000000
						CHANNELS 3 Zrotation Yrotation Xrotation
						JOINT RightForeArm
						{
							OFFSET -2.597580 -0.000000 -0.000000
							CHANNELS 3 Zrotation Yrotation Xrotation
							JOINT RightHand
							{
								OFFSET -2.455420 -0.000000 -0.000000
								CHANNELS 3 Zrotation Yrotation Xrotation
								End Site
								{
									OFFSET 0.000000 0.000000 0.000000
								}
							}
						}
					}
				}
			}
		}
	}
	JOINT LeftUpLeg
	{
		OFFSET 1.271939 0.000000 0.000000
		CHANNELS 3 Zrotation Yrotation Xrotation
		JOINT LeftLowLeg
		{
			OFFSET 0.000000 -4.342910 0.000000
			CHANNELS 3 Zrotation Yrotation Xrotation
			JOINT LeftFoot
			{
				OFFSET 0.000000 -4.487670 0.000000
				CHANNELS 3 Zrotation Yrotation Xrotation
				JOINT LeftToeBase
				{
					OFFSET 0.000000 0.000000 1.515070
					CHANNELS 3 Zrotation Yrotation Xrotation
					End Site
					{
						OFFSET 0.000000 0.000000 0.000000
					}
				}
			}
		}
	}
	JOINT RightUpLeg
	{
		OFFSET -1.271939 0.000000 0.000000
		CHANNELS 3 Zrotation Yrotation Xrotation
		JOINT RightLowLeg
		{
			OFFSET 0.000000 -4.342910 0.000000
			CHANNELS 3 Zrotation Yrotation Xrotation
			JOINT RightFoot
			{
				OFFSET 0.000000 -4.487670 0.000000
				CHANNELS 3 Zrotation Yrotation Xrotation
				JOINT RightToeBase
				{
					OFFSET 0.000000 0.000000 1.515070
					CHANNELS 3 Zrotation Yrotation Xrotation
					End Site
					{
						OFFSET 0.000000 0.000000 0.000000
					}
				}
			}
		}
	}
}
MOTION
Frames: 13
Frame Time: 0.041667
-15.462776 8.866733 42.874611 177.517721 4.393471 179.511294 2.458129 2.815507 -17.402576 -6.821918 2.840501 14.960610 0.000000 0.000000 0.000000 12.799892 3.123132 16.490626 -9.238386 -6.211223 -80.096043 -25.629299 4.836090 5.608002 -46.791199 -5.980420 19.115200 0.000000 -19.815599 0.000000 6.115140 15.501200 -5.785890 30.167900 -6.183110 0.613007 48.058800 2.154450 19.822998 0.000000 23.488300 0.000000 3.217240 -9.836930 -7.564300 -6.153007 -14.832205 2.433450 0.000000 0.000000 14.370400 -16.801443 5.681400 -6.392432 0.000000 0.000000 -19.183710 4.892914 13.880678 2.744464 0.000000 0.000000 18.227400 27.809897 -6.056095 -14.404714 0.000000 0.000000 -15.927420 
-15.467162 8.867068 42.879529 177.533812 4.301679 179.462893 2.421341 2.798845 -17.315307 -6.837833 2.831770 14.888300 0.000000 0.000000 0.000000 12.809169 3.139431 16.511902 -9.212303 -6.189832 -80.065380 -25.611300 4.812130 5.682007 -46.772099 -5.987160 19.249100 0.000000 -19.802999 0.000000 6.211610 15.440900 -6.266410 30.124901 -6.299010 0.653992 48.134701 2.124760 19.621002 0.000000 23.617800 0.000000 2.946320 -9.455510 -8.375370 -6.160138 -14.931991 2.446790 0.000000 0.000000 14.372600 -16.783299 5.669386 -6.372400 0.000000 0.000000 -19.177020 4.904735 13.902507 2.685638 0.000000 0.000000 18.407301 27.791789 -6.147520 -14.451697 0.000000 0.000000 -15.952238 
-15.471508 8.867182 42.886178 177.520371 4.222941 179.428855 2.351416 2.770517 -17.218954 -6.830156 2.838305 14.782647 0.000000 0.000000 0.000000 12.839074 3.133122 16.613863 -9.232615 -6.188872 -80.085581 -25.608801 4.761160 5.773987 -46.731400 -5.951940 19.331600 0.000000 -19.888700 0.000000 6.306900 15.495000 -5.746420 30.141600 -6.412840 0.722992 48.116199 2.166830 19.487000 0.000000 23.721701 0.000000 2.866930 -9.333500 -8.160670 -6.162406 -14.836669 2.388363 0.000000 0.000000 14.439800 -16.700404 5.521663 -6.300754 0.000000 0.000000 -19.203690 4.918116 14.087084 2.716512 0.000000 0.000000 18.364901 27.961145 -6.301124 -14.579309 0.000000 0.000000 -15.929081 
-15.476244 8.867144 42.892963 177.535236 4.182125 179.435603 2.331821 2.784347 -17.144064 -6.852980 2.829915 14.654671 0.000000 0.000000 0.000000 12.849379 3.116876 16.683999 -9.188701 -6.217949 -80.108296 -25.591101 4.757020 5.838989 -46.725201 -5.942180 19.322001 0.000000 -19.900499 0.000000 6.265310 15.442200 -5.959160 30.153400 -6.454430 0.726013 48.125401 2.044600 19.227997 0.000000 23.796101 0.000000 3.010490 -9.552840 -7.358840 -6.164577 -14.915301 2.321146 0.000000 0.000000 14.473000 -16.660764 5.557603 -6.305961 0.000000 0.000000 -19.190280 4.881506 14.010966 2.501218 0.000000 0.000000 18.698999 27.912653 -6.255991 -14.586773 0.000000 0.000000 -15.964117 
-15.481220 8.867098 42.899022 177.547162 4.091026 179.476843 2.314406 2.775341 -17.147434 -6.876561 2.821012 14.611000 0.000000 0.000000 0.000000 12.871755 3.103273 16.748834 -9.227531 -6.218216 -80.126347 -25.599501 4.737500 5.807007 -46.695000 -5.901860 19.296801 0.000000 -19.884199 0.000000 6.074840 15.361100 -6.120860 30.131800 -6.469390 0.584015 48.170799 1.831410 19.057007 0.000000 23.896500 0.000000 3.170680 -9.763670 -7.051810 -6.149574 -14.999241 2.221101 0.000000 0.000000 14.494400 -16.688695 5.495139 -6.291531 0.000000 0.000000 -19.182550 4.856538 14.001294 2.389573 0.000000 0.000000 18.777000 27.988574 -6.264682 -14.629492 0.000000 0.000000 -15.974477 
-15.485880 8.866708 42.904425 177.579274 3.991312 179.501471 2.315771 2.779629 -17.130377 -6.924219 2.790163 14.510179 0.000000 0.000000 0.000000 12.903908 3.098035 16.878527 -9.202106 -6.221774 -80.130591 -25.574800 4.723300 5.915009 -46.671902 -5.923220 19.300600 0.000000 -19.873600 0.000000 6.052520 15.388400 -6.574980 30.150900 -6.568870 0.826996 48.163799 1.974620 18.764008 0.000000 23.927401 0.000000 3.061810 -9.475330 -7.960680 -6.161788 -15.398361 2.181339 0.000000 0.000000 14.477800 -16.702754 5.706765 -6.355528 0.000000 0.000000 -19.164140 4.818392 13.763739 2.265970 0.000000 0.000000 18.905600 27.944062 -6.144058 -14.573146 0.000000 0.000000 -15.999967 
-15.490266 8.866439 42.910347 177.588298 3.846496 179.486311 2.303225 2.764312 -17.064264 -6.979019 2.748374 14.407330 0.000000 0.000000 0.000000 12.907971 3.110326 17.014112 -9.111747 -6.261451 -80.165186 -25.536200 4.703850 5.964996 -46.683102 -5.930590 19.241899 0.000000 -19.805099 0.000000 6.067460 15.382600 -6.304420 30.183599 -6.607190 0.790985 48.191299 1.862460 18.489990 0.000000 23.875299 0.000000 3.164610 -9.581830 -7.114320 -6.148072 -15.436141 2.099381 0.000000 0.000000 14.569500 -16.785349 5.534399 -6.347309 0.000000 0.000000 -19.147300 4.793429 13.632950 2.241586 0.000000 0.000000 18.934700 27.986040 -6.095079 -14.585764 0.000000 0.000000 -16.004400 
-15.495081 8.867035 42.914978 177.604173 3.697222 179.409868 2.300498 2.752146 -16.992194 -7.009776 2.723335 14.382593 0.000000 0.000000 0.000000 12.970204 2.999945 17.076447 -9.173395 -6.271007 -80.119670 -25.521700 4.658670 6.080994 -46.664101 -5.982460 19.168699 0.000000 -19.791000 0.000000 6.054030 15.460400 -6.049420 30.181499 -6.606140 0.826996 48.263199 1.779930 17.988007 0.000000 23.764700 0.000000 3.228910 -9.477500 -6.910110 -6.172988 -15.570971 2.106982 0.000000 0.000000 14.634500 -16.797480 5.526355 -6.337275 0.000000 0.000000 -19.155670 4.790517 13.504775 2.336569 0.000000 0.000000 18.862101 28.047857 -6.064596 -14.567115 0.000000 0.000000 -15.977758 
-15.499527 8.867401 42.919504 177.599635 3.572548 179.392141 2.269258 2.752029 -16.951140 -7.019297 2.728544 14.313473 0.000000 0.000000 0.000000 13.024469 2.911000 17.137050 -9.132540 -6.298715 -80.135063 -25.516199 4.617860 6.049011 -46.660900 -5.921590 19.232500 0.000000 -19.727200 0.000000 6.020660 15.401700 -6.342900 30.157499 -6.642820 0.848999 48.376999 1.751150 17.390991 0.000000 23.548100 0.000000 2.981270 -8.929170 -8.795150 -6.193861 -15.638559 2.042065 0.000000 0.000000 14.721500 -16.751798 5.506864 -6.307127 0.000000 0.000000 -19.161350 4.766520 13.440726 2.336118 0.000000 0.000000 18.862801 28.113539 -6.073465 -14.594521 0.000000 0.000000 -15.969924 
-15.504677 8.867993 42.923596 177.612797 3.410710 179.357245 2.270962 2.733465 -16.919030 -7.035300 2.704306 14.307173 0.000000 0.000000 0.000000 12.987332 2.945060 17.179530 -9.090074 -6.334878 -80.142022 -25.510200 4.595280 6.059998 -46.646900 -5.901020 19.335300 0.000000 -19.750700 0.000000 6.071930 15.429100 -5.850070 30.111300 -6.655270 0.803986 48.534000 1.730370 16.817993 0.000000 23.201900 0.000000 3.657360 -9.745050 -10.360500 -6.218444 -15.806889 1.996433 0.000000 0.000000 14.816700 -16.693625 5.551254 -6.296349 0.000000 0.000000 -19.154780 4.754512 13.297993 2.329504 0.000000 0.000000 18.919901 28.060764 -6.126151 -14.590957 0.000000 0.000000 -15.975495 
-15.509642 8.868666 42.930695 177.647617 3.393977 179.289214 2.325994 2.825640 -16.767889 -7.097499 2.696708 14.206463 0.000000 0.000000 0.000000 12.956614 2.992062 17.263095 -9.028318 -6.383818 -80.230902 -25.493401 4.575540 6.092987 -46.625099 -5.874200 19.397800 0.000000 -19.798800 0.000000 6.068540 15.462100 -6.012270 30.128700 -6.608540 0.808014 48.617599 1.653070 16.184998 0.000000 23.027800 0.000000 2.910220 -9.049890 -12.036600 -6.225936 -15.855982 1.981356 0.000000 0.000000 14.895200 -16.713082 5.591939 -6.311456 0.000000 0.000000 -19.138010 4.723857 13.022486 2.352977 0.000000 0.000000 18.886101 28.102596 -5.911989 -14.463792 0.000000 0.000000 -15.984576 
-15.514421 8.869259 42.937357 177.673869 3.353762 179.279470 2.371193 2.894678 -16.709945 -7.140745 2.697257 14.156209 0.000000 0.000000 0.000000 12.995723 2.891049 17.264243 -9.060520 -6.414642 -80.245837 -25.456699 4.531180 6.118988 -46.652599 -5.843260 19.379801 0.000000 -19.816700 0.000000 6.074360 15.484400 -6.333380 30.152300 -6.634750 0.799011 48.657001 1.708930 15.817993 0.000000 22.730900 0.000000 3.200790 -10.406500 -12.470000 -6.212231 -15.867854 1.884389 0.000000 0.000000 15.016100 -16.714154 5.551121 -6.306997 0.000000 0.000000 -19.176030 4.643134 12.626652 2.252145 0.000000 0.000000 18.981300 28.002981 -5.631564 -14.288720 0.000000 0.000000 -16.030640 
-15.518267 8.869831 42.942794 177.685415 3.274643 179.207471 2.367213 2.887506 -16.613002 -7.132598 2.682625 14.115690 0.000000 0.000000 0.000000 12.947131 2.954178 17.276652 -8.997609 -6.441641 -80.274136 -25.424200 4.522130 6.158997 -46.701401 -5.800700 19.261999 0.000000 -19.872200 0.000000 6.134320 15.456000 -5.893130 30.089899 -6.606790 0.858002 48.719101 1.743430 15.632996 0.000000 22.574600 0.000000 2.896120 -8.739000 -11.951700 -6.233795 -15.957909 1.872815 0.000000 0.000000 15.109200 -16.722409 5.556177 -6.310066 0.000000 0.000000 -19.123620 4.651607 12.609205 2.282939 0.000000 0.000000 19.011700 28.022048 -5.684091 -14.300702 0.000000 0.000000 -16.066260 
